<?xml version="1.0" standalone="no"?>
<!DOCTYPE svg PUBLIC "-//W3C//DTD SVG 20010904//EN"
 "http://www.w3.org/TR/2001/REC-SVG-20010904/DTD/svg10.dtd">
<svg version="1.0" xmlns="http://www.w3.org/2000/svg"
 width="1280.000000pt" height="1280.000000pt" viewBox="0 0 1280.000000 1280.000000"
 preserveAspectRatio="xMidYMid meet">
<metadata>
Created by potrace 1.15, written by Peter Selinger 2001-2017
</metadata>
<g transform="translate(0.000000,1280.000000) scale(0.100000,-0.100000)"
fill="#000000" stroke="none">
<path d="M8840 12140 l0 -620 895 -2 895 -3 -1210 -1203 -1210 -1204 -38 30
c-321 253 -834 529 -1311 706 -1225 455 -2581 412 -3807 -119 -920 -399 -1710
-1072 -2244 -1910 -683 -1072 -948 -2352 -739 -3565 146 -848 495 -1637 1022
-2310 1076 -1373 2854 -2110 4592 -1904 1807 214 3359 1352 4084 2995 609
1381 582 2905 -75 4257 -162 335 -352 644 -541 883 l-52 67 927 923 c510 508
1052 1048 1205 1199 l277 275 0 -883 0 -882 623 0 622 0 -3 1945 -2 1945
-1955 0 -1955 0 0 -620z m-3485 -3235 c638 -32 1351 -275 1925 -658 987 -659
1624 -1795 1679 -2994 52 -1152 -437 -2293 -1308 -3052 -649 -566 -1502 -908
-2368 -950 -787 -38 -1580 172 -2258 600 -539 339 -1002 829 -1290 1364 -26
50 -63 118 -81 152 -139 257 -297 737 -353 1068 -76 455 -73 906 10 1335 79
413 237 843 437 1195 414 728 1046 1292 1822 1628 429 185 898 295 1355 317
146 7 203 6 430 -5z"/>
</g>
</svg>
