<?xml version="1.0" standalone="no"?>
<!DOCTYPE svg PUBLIC "-//W3C//DTD SVG 20010904//EN"
 "http://www.w3.org/TR/2001/REC-SVG-20010904/DTD/svg10.dtd">
<svg version="1.0" xmlns="http://www.w3.org/2000/svg"
 width="704.000000pt" height="1280.000000pt" viewBox="0 0 704.000000 1280.000000"
 preserveAspectRatio="xMidYMid meet">
<metadata>
Created by potrace 1.15, written by Peter Selinger 2001-2017
</metadata>
<g transform="translate(0.000000,1280.000000) scale(0.100000,-0.100000)"
fill="#000000" stroke="none">
<path d="M925 12378 c-220 -27 -401 -50 -402 -52 -1 -1 6 -61 16 -132 126
-846 596 -1601 1294 -2075 l123 -84 -125 -68 c-724 -394 -1279 -1026 -1584
-1802 -114 -289 -183 -567 -224 -893 -26 -210 -24 -606 5 -822 89 -662 349
-1274 759 -1785 532 -665 1346 -1132 2196 -1262 l117 -18 0 -567 0 -568 -490
0 -490 0 0 -425 0 -425 490 0 490 0 0 -490 0 -490 420 0 420 0 0 490 0 490
490 0 490 0 0 425 0 425 -490 0 -490 0 0 568 0 567 117 18 c488 75 1000 274
1413 550 573 383 994 889 1282 1541 63 143 163 456 202 631 61 275 80 452 80
750 0 339 -25 549 -105 867 -100 400 -287 812 -526 1156 -301 434 -711 803
-1180 1062 l-111 61 123 84 c240 161 441 339 609 539 407 484 630 991 720
1641 l6 41 -403 48 c-221 26 -409 49 -418 52 -13 3 -18 -16 -33 -112 -78 -526
-354 -1028 -744 -1355 -458 -384 -1055 -575 -1623 -519 -598 59 -1148 354
-1512 809 -246 308 -421 714 -467 1085 -10 78 -16 96 -29 95 -9 -1 -196 -24
-416 -51z m2955 -2843 c473 -72 886 -244 1260 -523 133 -99 385 -347 483 -473
111 -145 204 -296 292 -474 130 -264 212 -526 256 -816 28 -187 31 -525 5
-698 -45 -313 -119 -558 -245 -826 -130 -274 -302 -517 -520 -736 -426 -425
-963 -685 -1591 -770 -122 -16 -478 -16 -600 0 -628 85 -1165 345 -1591 770
-420 421 -674 939 -765 1562 -26 173 -23 511 5 698 71 468 263 919 548 1290
98 126 350 374 483 473 405 302 874 485 1375 537 127 14 479 5 605 -14z"/>
</g>
</svg>
