<?xml version="1.0" standalone="no"?>
<!DOCTYPE svg PUBLIC "-//W3C//DTD SVG 20010904//EN"
 "http://www.w3.org/TR/2001/REC-SVG-20010904/DTD/svg10.dtd">
<svg version="1.0" xmlns="http://www.w3.org/2000/svg"
 width="1101.000000pt" height="1280.000000pt" viewBox="0 0 1101.000000 1280.000000"
 preserveAspectRatio="xMidYMid meet">
<metadata>
Created by potrace 1.15, written by Peter Selinger 2001-2017
</metadata>
<g transform="translate(0.000000,1280.000000) scale(0.100000,-0.100000)"
fill="#000000" stroke="none">
<path d="M1070 12134 c-481 -365 -873 -668 -871 -672 11 -23 577 -762 583
-762 4 0 164 119 355 264 192 145 349 260 351 255 2 -4 -6 -86 -17 -181 -90
-754 -125 -1326 -126 -2018 0 -530 7 -695 46 -1045 162 -1469 699 -2384 1684
-2873 466 -231 1093 -372 1813 -408 l142 -7 0 -688 0 -689 -905 0 -905 0 0
-485 0 -485 905 0 905 0 0 -925 0 -925 485 0 485 0 0 925 0 925 905 0 905 0 0
485 0 485 -905 0 -905 0 0 689 0 688 133 7 c1586 82 2548 607 3076 1681 262
532 403 1144 462 2015 16 228 16 1003 0 1290 -22 415 -93 1236 -118 1370 -5
29 -4 33 8 24 8 -6 160 -125 338 -263 264 -205 326 -250 336 -239 7 7 142 179
299 382 231 298 284 372 274 381 -7 7 -433 339 -947 739 l-933 726 -87 0 -86
-1 -725 -969 c-399 -534 -726 -974 -728 -979 -2 -6 171 -140 383 -300 l386
-290 252 339 c139 186 255 339 258 339 11 2 53 -388 84 -774 57 -705 62 -1478
15 -1985 -72 -759 -258 -1334 -558 -1724 -233 -303 -577 -518 -1028 -641 -286
-78 -550 -118 -1006 -151 l-88 -6 0 2144 0 2143 288 -288 287 -287 345 346
345 346 -900 893 c-495 492 -903 893 -907 892 -12 -4 -1748 -1817 -1748 -1826
0 -5 156 -159 346 -342 l347 -333 141 148 c77 81 215 225 306 321 91 95 168
174 173 174 4 1 7 -974 7 -2165 l0 -2166 -92 7 c-779 51 -1272 181 -1652 436
-124 82 -288 235 -382 354 -552 707 -714 2037 -503 4134 38 383 41 404 48 418
4 8 100 -116 240 -307 128 -176 236 -322 239 -324 10 -6 781 557 781 569 0 6
-303 424 -673 930 l-672 920 -209 2 -210 2 -875 -665z"/>
</g>
</svg>
