<?xml version="1.0" standalone="no"?>
<!DOCTYPE svg PUBLIC "-//W3C//DTD SVG 20010904//EN"
 "http://www.w3.org/TR/2001/REC-SVG-20010904/DTD/svg10.dtd">
<svg version="1.0" xmlns="http://www.w3.org/2000/svg"
 width="752.000000pt" height="1280.000000pt" viewBox="0 0 752.000000 1280.000000"
 preserveAspectRatio="xMidYMid meet">
<metadata>
Created by potrace 1.15, written by Peter Selinger 2001-2017
</metadata>
<g transform="translate(0.000000,1280.000000) scale(0.100000,-0.100000)"
fill="#000000" stroke="none">
<path d="M3535 12794 c-22 -2 -92 -9 -155 -15 -932 -88 -1834 -555 -2452
-1268 -518 -600 -822 -1299 -910 -2096 -19 -178 -17 -615 5 -795 90 -736 357
-1378 807 -1938 592 -739 1476 -1244 2395 -1367 66 -9 130 -18 143 -21 l22 -4
0 -930 0 -930 -735 0 -735 0 0 -365 0 -365 735 0 735 0 0 -1165 0 -1165 370 0
370 0 0 1165 0 1165 735 0 735 0 0 365 0 365 -735 0 -735 0 0 930 0 930 23 4
c12 3 76 12 142 21 986 132 1914 694 2512 1520 381 527 608 1114 690 1785 22
180 24 617 5 795 -119 1071 -647 2002 -1497 2640 -527 395 -1144 639 -1820
721 -122 14 -561 27 -650 18z"/>
</g>
</svg>
